<?xml version="1.0" encoding="utf-8"?>
<!-- Generator: Adobe Illustrator 18.0.0, SVG Export Plug-In . SVG Version: 6.00 Build 0)  -->
<!DOCTYPE svg PUBLIC "-//W3C//DTD SVG 1.1//EN" "http://www.w3.org/Graphics/SVG/1.1/DTD/svg11.dtd">
<svg version="1.1" id="Layer_1" xmlns="http://www.w3.org/2000/svg" xmlns:xlink="http://www.w3.org/1999/xlink" x="0px" y="0px"
	 viewBox="0 0 153 35" enable-background="new 0 0 153 35" xml:space="preserve">
<g>
	<path fill="#FFFFFF" d="M23.6,5.1l-3.2,3.1c-2.2-2.3-4.7-3.5-7.4-3.5c-2.3,0-4.3,0.8-5.9,2.4c-1.6,1.6-2.4,3.5-2.4,5.8
		c0,1.6,0.4,3,1.1,4.3c0.7,1.3,1.7,2.2,3,2.9c1.3,0.7,2.7,1.1,4.3,1.1c1.3,0,2.6-0.2,3.7-0.7c1.1-0.5,2.3-1.4,3.7-2.7l3.1,3.3
		c-1.8,1.7-3.5,3-5.1,3.6c-1.6,0.7-3.4,1-5.5,1c-3.8,0-6.9-1.2-9.3-3.6c-2.4-2.4-3.6-5.5-3.6-9.2c0-2.4,0.5-4.6,1.6-6.4
		c1.1-1.9,2.7-3.4,4.7-4.5c2-1.1,4.2-1.7,6.6-1.7c2,0,3.9,0.4,5.8,1.3C20.7,2.3,22.3,3.5,23.6,5.1L23.6,5.1z"/>
	<path fill-rule="evenodd" clip-rule="evenodd" fill="#FFFFFF" d="M34.5,6.7c1.7,0,3.3,0.4,4.8,1.3c1.5,0.8,2.7,2,3.5,3.4
		c0.8,1.4,1.3,3,1.3,4.7c0,1.7-0.4,3.3-1.3,4.7c-0.8,1.5-2,2.6-3.4,3.5c-1.4,0.8-3,1.2-4.8,1.2c-2.6,0-4.8-0.9-6.6-2.7
		c-1.8-1.8-2.7-4.1-2.7-6.7c0-2.8,1-5.1,3.1-7C30.1,7.5,32.2,6.7,34.5,6.7L34.5,6.7z M34.6,10.9c-1.4,0-2.6,0.5-3.5,1.5
		c-0.9,1-1.4,2.2-1.4,3.7c0,1.6,0.5,2.8,1.4,3.8c0.9,1,2.1,1.4,3.5,1.4c1.4,0,2.6-0.5,3.5-1.5c0.9-1,1.4-2.2,1.4-3.8
		c0-1.5-0.5-2.8-1.4-3.7C37.2,11.4,36,10.9,34.6,10.9L34.6,10.9z"/>
	<path fill="#FFFFFF" d="M46.3,7.1h4.5V9c1-0.9,1.9-1.4,2.8-1.8c0.8-0.3,1.7-0.5,2.6-0.5c1.8,0,3.3,0.6,4.5,1.9
		c1,1.1,1.6,2.6,1.6,4.7v11.8h-4.4v-7.9c0-2.1-0.1-3.6-0.3-4.3c-0.2-0.7-0.5-1.2-1-1.6c-0.5-0.4-1.1-0.6-1.8-0.6
		c-0.9,0-1.7,0.3-2.4,0.9c-0.6,0.6-1.1,1.4-1.4,2.5c-0.1,0.6-0.2,1.8-0.2,3.6v7.2h-4.5V7.1L46.3,7.1z"/>
	<path fill-rule="evenodd" clip-rule="evenodd" fill="#FFFFFF" d="M70.1,16c0,6.6,3.4,11.7,8.9,11.7c5.5,0,8.9-5.1,8.9-11.7
		c0-6.6-3.4-11.7-8.9-11.7C73.5,4.3,70.1,9.4,70.1,16L70.1,16z M79,30.4c-8.5,0-14.2-6.7-14.2-14.4c0-7.8,5.8-14.4,14.2-14.4
		c8.5,0,14.2,6.7,14.2,14.4C93.2,23.7,87.4,30.4,79,30.4L79,30.4z"/>
	<path fill="#FFFFFF" d="M96.1,6.9h3.8v11.5c0,1,0.1,1.7,0.3,2.1c0.2,0.4,0.5,0.7,1,1c0.5,0.2,1,0.4,1.6,0.4c0.7,0,2.1-0.1,2.6-0.4
		c0.5-0.3,0.8-0.6,1-1c0.2-0.4,0.3-1.2,0.3-2.4V6.9h3.8v10.6c0,1.8-0.1,3-0.3,3.7c-0.2,0.7-0.7,1.4-1.3,2c-0.6,0.6-1.4,1.1-2.2,1.4
		c-0.8,0.3-2.7,0.5-3.8,0.5c-1.4,0-2.7-0.3-3.8-0.9c-1.1-0.6-1.8-1.3-2.3-2.2c-0.5-0.9-0.7-2.4-0.7-4.5V6.9L96.1,6.9z"/>
	<path fill="#FFFFFF" d="M96.1,6.9h3.8v11.5c0,1,0.1,1.7,0.3,2.1c0.2,0.4,0.5,0.7,1,1c0.5,0.2,1,0.4,1.6,0.4c0.7,0,2.1-0.1,2.6-0.4
		c0.5-0.3,0.8-0.6,1-1c0.2-0.4,0.3-1.2,0.3-2.4V6.9h3.8v10.6c0,1.8-0.1,3-0.3,3.7c-0.2,0.7-0.7,1.4-1.3,2c-0.6,0.6-1.4,1.1-2.2,1.4
		c-0.8,0.3-2.7,0.5-3.8,0.5c-1.4,0-2.7-0.3-3.8-0.9c-1.1-0.6-1.8-1.3-2.3-2.2c-0.5-0.9-0.7-2.4-0.7-4.5V6.9L96.1,6.9z"/>
	<polygon fill="#FFFFFF" points="114.4,6.9 125.3,6.9 125.3,10.2 118.1,10.2 118.1,21.3 125.3,21.3 125.3,24.6 114.4,24.6 
		114.4,6.9 	"/>
	<polygon fill="#FFFFFF" points="114.4,6.9 125.3,6.9 125.3,10.2 118.1,10.2 118.1,21.3 125.3,21.3 125.3,24.6 114.4,24.6 
		114.4,6.9 	"/>
	<path fill="#FFFFFF" d="M139.6,9.3l-2.8,2.2c-1-1.2-2-1.8-3-1.8c-0.5,0-0.9,0.1-1.2,0.4c-0.3,0.2-0.5,0.5-0.5,0.8
		c0,0.3,0.1,0.6,0.3,0.8c0.3,0.4,1.2,1.1,2.8,2.3c1.4,1.1,2.3,1.8,2.6,2c0.8,0.7,1.3,1.4,1.6,2c0.3,0.6,0.5,1.3,0.5,2.1
		c0,1.5-0.6,2.7-1.7,3.6c-1.1,0.9-2.6,1.4-4.4,1.4c-1.4,0-2.7-0.3-3.7-0.9c-1-0.6-1.9-1.6-2.7-2.9l3.2-1.7c1,1.6,2.1,2.4,3.3,2.4
		c0.7,0,1.2-0.2,1.6-0.5c0.4-0.3,0.7-0.7,0.7-1.2c0-0.4-0.2-0.8-0.5-1.2c-0.3-0.4-1.1-1-2.2-1.8c-2.2-1.6-3.6-2.8-4.2-3.6
		c-0.6-0.9-0.9-1.7-0.9-2.6c0-1.2,0.5-2.3,1.6-3.2c1.1-0.9,2.4-1.3,3.9-1.3c1,0,1.9,0.2,2.8,0.6C137.6,7.5,138.6,8.2,139.6,9.3
		L139.6,9.3z"/>
	<path fill="#FFFFFF" d="M139.6,9.3l-2.8,2.2c-1-1.2-2-1.8-3-1.8c-0.5,0-0.9,0.1-1.2,0.4c-0.3,0.2-0.5,0.5-0.5,0.8
		c0,0.3,0.1,0.6,0.3,0.8c0.3,0.4,1.2,1.1,2.8,2.3c1.4,1.1,2.3,1.8,2.6,2c0.8,0.7,1.3,1.4,1.6,2c0.3,0.6,0.5,1.3,0.5,2.1
		c0,1.5-0.6,2.7-1.7,3.6c-1.1,0.9-2.6,1.4-4.4,1.4c-1.4,0-2.7-0.3-3.7-0.9c-1-0.6-1.9-1.6-2.7-2.9l3.2-1.7c1,1.6,2.1,2.4,3.3,2.4
		c0.7,0,1.2-0.2,1.6-0.5c0.4-0.3,0.7-0.7,0.7-1.2c0-0.4-0.2-0.8-0.5-1.2c-0.3-0.4-1.1-1-2.2-1.8c-2.2-1.6-3.6-2.8-4.2-3.6
		c-0.6-0.9-0.9-1.7-0.9-2.6c0-1.2,0.5-2.3,1.6-3.2c1.1-0.9,2.4-1.3,3.9-1.3c1,0,1.9,0.2,2.8,0.6C137.6,7.5,138.6,8.2,139.6,9.3
		L139.6,9.3z"/>
	<polygon fill="#FFFFFF" points="142,6.9 153,6.9 153,10.2 149.4,10.2 149.4,24.6 145.5,24.6 145.5,10.2 142,10.2 142,6.9 	"/>
	<polygon fill="#FFFFFF" points="142,6.9 153,6.9 153,10.2 149.4,10.2 149.4,24.6 145.5,24.6 145.5,10.2 142,10.2 142,6.9 	"/>
	<path fill="#FFFFFF" d="M124.9,14.5l1.5,1.4c-6.7,2.3-20,9.5-25.3,12.1c-6.5,3.1-13.8,6.7-14.5,7.1c-0.4-0.7-2.2-2.3-3.6-3.8
		l-1.3-1.4C80,28,80.5,27.8,79,26.7c-1.6-1-2.1-1.9-3.7-2.4c2.1-1,3.6-1.3,5.7-0.5c2.3,0.8,1.7,0.7,4.6,3.7l2.4,2.6
		c5.6-2.9,9.1-4.4,17.2-7.9C113.6,18.6,117,16.5,124.9,14.5L124.9,14.5z"/>
</g>
</svg>
